<mxfile host="app.diagrams.net" modified="2024-04-25T16:13:28.397Z" agent="Mozilla/5.0 (Windows NT 10.0; Win64; x64) AppleWebKit/537.36 (KHTML, like Gecko) Chrome/124.0.0.0 Safari/537.36 Edg/124.0.0.0" etag="ZWT9HW4B9Ua7joZ7MtKR" version="24.2.2" type="device">
  <diagram id="R2lEEEUBdFMjLlhIrx00" name="Page-1">
    <mxGraphModel dx="1486" dy="652" grid="1" gridSize="10" guides="1" tooltips="1" connect="1" arrows="1" fold="1" page="1" pageScale="1" pageWidth="850" pageHeight="1100" math="0" shadow="0" extFonts="Permanent Marker^https://fonts.googleapis.com/css?family=Permanent+Marker">
      <root>
        <mxCell id="0" />
        <mxCell id="1" parent="0" />
        <mxCell id="bZxXl5SBJ8heXvbcKSXl-7" value="&lt;table border=&quot;1&quot; width=&quot;100%&quot; height=&quot;100%&quot; cellpadding=&quot;4&quot; style=&quot;width:100%;height:100%;border-collapse:collapse;&quot;&gt;&lt;tbody&gt;&lt;tr&gt;&lt;th&gt;User&lt;/th&gt;&lt;/tr&gt;&lt;tr&gt;&lt;td&gt;id (PK)&lt;br&gt;id_subscription (FK)&lt;br&gt;&lt;/td&gt;&lt;/tr&gt;&lt;tr&gt;&lt;td&gt;nickname&lt;br&gt;description&lt;br&gt;path_to_photo&lt;br&gt;email&lt;br&gt;password&lt;br&gt;isAdmin&lt;/td&gt;&lt;/tr&gt;&lt;/tbody&gt;&lt;/table&gt;" style="text;html=1;whiteSpace=wrap;strokeColor=none;fillColor=none;overflow=fill;align=left;" vertex="1" parent="1">
          <mxGeometry x="320" y="245" width="140" height="180" as="geometry" />
        </mxCell>
        <mxCell id="bZxXl5SBJ8heXvbcKSXl-8" value="&lt;table border=&quot;1&quot; width=&quot;100%&quot; height=&quot;100%&quot; cellpadding=&quot;4&quot; style=&quot;width:100%;height:100%;border-collapse:collapse;&quot;&gt;&lt;tbody&gt;&lt;tr&gt;&lt;th&gt;Book&lt;/th&gt;&lt;/tr&gt;&lt;tr&gt;&lt;td&gt;id (PK)&lt;br&gt;&lt;/td&gt;&lt;/tr&gt;&lt;tr&gt;&lt;td&gt;author&lt;br&gt;title&lt;br&gt;content&lt;br&gt;description&lt;br&gt;path_to_image&lt;br&gt;path_to_audio&lt;/td&gt;&lt;/tr&gt;&lt;/tbody&gt;&lt;/table&gt;" style="text;html=1;whiteSpace=wrap;strokeColor=none;fillColor=none;overflow=fill;align=left;" vertex="1" parent="1">
          <mxGeometry x="570" y="260" width="140" height="180" as="geometry" />
        </mxCell>
        <mxCell id="bZxXl5SBJ8heXvbcKSXl-9" value="&lt;table border=&quot;1&quot; width=&quot;100%&quot; height=&quot;100%&quot; cellpadding=&quot;4&quot; style=&quot;width:100%;height:100%;border-collapse:collapse;&quot;&gt;&lt;tbody&gt;&lt;tr&gt;&lt;th&gt;Subscription&lt;/th&gt;&lt;/tr&gt;&lt;tr&gt;&lt;td&gt;id (PK)&lt;br&gt;&lt;/td&gt;&lt;/tr&gt;&lt;tr&gt;&lt;td&gt;name&lt;br&gt;cost&lt;br&gt;&lt;/td&gt;&lt;/tr&gt;&lt;/tbody&gt;&lt;/table&gt;" style="text;html=1;whiteSpace=wrap;strokeColor=none;fillColor=none;overflow=fill;align=left;" vertex="1" parent="1">
          <mxGeometry x="440" y="460" width="140" height="110" as="geometry" />
        </mxCell>
        <mxCell id="bZxXl5SBJ8heXvbcKSXl-10" value="&lt;table border=&quot;1&quot; width=&quot;100%&quot; height=&quot;100%&quot; cellpadding=&quot;4&quot; style=&quot;width:100%;height:100%;border-collapse:collapse;&quot;&gt;&lt;tbody&gt;&lt;tr&gt;&lt;th&gt;AppReview&lt;/th&gt;&lt;/tr&gt;&lt;tr&gt;&lt;td&gt;id (PK)&lt;br&gt;user_id (FK)&lt;br&gt;&lt;/td&gt;&lt;/tr&gt;&lt;tr&gt;&lt;td&gt;content&lt;br&gt;count_star&lt;/td&gt;&lt;/tr&gt;&lt;/tbody&gt;&lt;/table&gt;" style="text;html=1;whiteSpace=wrap;strokeColor=none;fillColor=none;overflow=fill;align=left;" vertex="1" parent="1">
          <mxGeometry x="130" y="245" width="140" height="135" as="geometry" />
        </mxCell>
        <mxCell id="bZxXl5SBJ8heXvbcKSXl-11" value="&lt;table border=&quot;1&quot; width=&quot;100%&quot; height=&quot;100%&quot; cellpadding=&quot;4&quot; style=&quot;width:100%;height:100%;border-collapse:collapse;&quot;&gt;&lt;tbody&gt;&lt;tr&gt;&lt;th&gt;BookReview&lt;/th&gt;&lt;/tr&gt;&lt;tr&gt;&lt;td&gt;id (PK)&lt;br&gt;user_id (FK)&lt;br&gt;book_id (FK)&lt;/td&gt;&lt;/tr&gt;&lt;tr&gt;&lt;td&gt;content&lt;br&gt;count_star&lt;/td&gt;&lt;/tr&gt;&lt;/tbody&gt;&lt;/table&gt;" style="text;html=1;whiteSpace=wrap;strokeColor=none;fillColor=none;overflow=fill;align=left;" vertex="1" parent="1">
          <mxGeometry x="320" y="65" width="140" height="135" as="geometry" />
        </mxCell>
        <mxCell id="bZxXl5SBJ8heXvbcKSXl-12" value="" style="endArrow=none;html=1;rounded=0;entryX=0.602;entryY=0.65;entryDx=0;entryDy=0;entryPerimeter=0;" edge="1" parent="1" source="bZxXl5SBJ8heXvbcKSXl-7" target="bZxXl5SBJ8heXvbcKSXl-13">
          <mxGeometry width="50" height="50" relative="1" as="geometry">
            <mxPoint x="530" y="370" as="sourcePoint" />
            <mxPoint x="580" y="320" as="targetPoint" />
          </mxGeometry>
        </mxCell>
        <mxCell id="bZxXl5SBJ8heXvbcKSXl-13" value="" style="shape=waypoint;sketch=0;fillStyle=solid;size=6;pointerEvents=1;points=[];fillColor=none;resizable=0;rotatable=0;perimeter=centerPerimeter;snapToPoint=1;" vertex="1" parent="1">
          <mxGeometry x="560" y="325" width="20" height="20" as="geometry" />
        </mxCell>
        <mxCell id="bZxXl5SBJ8heXvbcKSXl-15" value="reads" style="text;html=1;align=center;verticalAlign=middle;whiteSpace=wrap;rounded=0;" vertex="1" parent="1">
          <mxGeometry x="484" y="306" width="60" height="30" as="geometry" />
        </mxCell>
        <mxCell id="bZxXl5SBJ8heXvbcKSXl-16" value="" style="endArrow=none;html=1;rounded=0;exitX=0.5;exitY=1;exitDx=0;exitDy=0;entryX=-0.006;entryY=0.547;entryDx=0;entryDy=0;entryPerimeter=0;" edge="1" parent="1" source="bZxXl5SBJ8heXvbcKSXl-7" target="bZxXl5SBJ8heXvbcKSXl-9">
          <mxGeometry width="50" height="50" relative="1" as="geometry">
            <mxPoint x="470" y="345" as="sourcePoint" />
            <mxPoint x="390" y="520" as="targetPoint" />
            <Array as="points">
              <mxPoint x="390" y="520" />
            </Array>
          </mxGeometry>
        </mxCell>
        <mxCell id="bZxXl5SBJ8heXvbcKSXl-18" value="" style="shape=waypoint;sketch=0;fillStyle=solid;size=6;pointerEvents=1;points=[];fillColor=none;resizable=0;rotatable=0;perimeter=centerPerimeter;snapToPoint=1;" vertex="1" parent="1">
          <mxGeometry x="430" y="510" width="20" height="20" as="geometry" />
        </mxCell>
        <mxCell id="bZxXl5SBJ8heXvbcKSXl-20" value="has" style="text;html=1;align=center;verticalAlign=middle;whiteSpace=wrap;rounded=0;" vertex="1" parent="1">
          <mxGeometry x="382" y="492" width="60" height="30" as="geometry" />
        </mxCell>
        <mxCell id="bZxXl5SBJ8heXvbcKSXl-21" value="" style="endArrow=none;html=1;rounded=0;exitDx=0;exitDy=0;entryX=1.014;entryY=0.544;entryDx=0;entryDy=0;entryPerimeter=0;" edge="1" parent="1" source="bZxXl5SBJ8heXvbcKSXl-22" target="bZxXl5SBJ8heXvbcKSXl-9">
          <mxGeometry width="50" height="50" relative="1" as="geometry">
            <mxPoint x="640" y="425" as="sourcePoint" />
            <mxPoint x="689" y="520" as="targetPoint" />
            <Array as="points">
              <mxPoint x="640" y="520" />
            </Array>
          </mxGeometry>
        </mxCell>
        <mxCell id="bZxXl5SBJ8heXvbcKSXl-23" value="" style="endArrow=none;html=1;rounded=0;entryDx=0;entryDy=0;entryPerimeter=0;" edge="1" parent="1" target="bZxXl5SBJ8heXvbcKSXl-22">
          <mxGeometry width="50" height="50" relative="1" as="geometry">
            <mxPoint x="640" y="440" as="sourcePoint" />
            <mxPoint x="582" y="520" as="targetPoint" />
            <Array as="points" />
          </mxGeometry>
        </mxCell>
        <mxCell id="bZxXl5SBJ8heXvbcKSXl-22" value="" style="shape=waypoint;sketch=0;fillStyle=solid;size=6;pointerEvents=1;points=[];fillColor=none;resizable=0;rotatable=0;perimeter=centerPerimeter;snapToPoint=1;" vertex="1" parent="1">
          <mxGeometry x="630" y="430" width="20" height="20" as="geometry" />
        </mxCell>
        <mxCell id="bZxXl5SBJ8heXvbcKSXl-24" value="contains" style="text;html=1;align=center;verticalAlign=middle;whiteSpace=wrap;rounded=0;" vertex="1" parent="1">
          <mxGeometry x="640" y="480" width="60" height="30" as="geometry" />
        </mxCell>
        <mxCell id="bZxXl5SBJ8heXvbcKSXl-25" value="" style="endArrow=none;html=1;rounded=0;entryX=0.003;entryY=0.423;entryDx=0;entryDy=0;entryPerimeter=0;" edge="1" parent="1" target="bZxXl5SBJ8heXvbcKSXl-7">
          <mxGeometry width="50" height="50" relative="1" as="geometry">
            <mxPoint x="270" y="320.76" as="sourcePoint" />
            <mxPoint x="320" y="320" as="targetPoint" />
          </mxGeometry>
        </mxCell>
        <mxCell id="bZxXl5SBJ8heXvbcKSXl-26" value="writes" style="text;html=1;align=center;verticalAlign=middle;whiteSpace=wrap;rounded=0;" vertex="1" parent="1">
          <mxGeometry x="267" y="320" width="60" height="30" as="geometry" />
        </mxCell>
        <mxCell id="bZxXl5SBJ8heXvbcKSXl-27" value="" style="shape=waypoint;sketch=0;fillStyle=solid;size=6;pointerEvents=1;points=[];fillColor=none;resizable=0;rotatable=0;perimeter=centerPerimeter;snapToPoint=1;" vertex="1" parent="1">
          <mxGeometry x="260" y="311" width="20" height="20" as="geometry" />
        </mxCell>
        <mxCell id="bZxXl5SBJ8heXvbcKSXl-28" value="" style="endArrow=none;html=1;rounded=0;entryX=0.5;entryY=1;entryDx=0;entryDy=0;exitDx=0;exitDy=0;" edge="1" parent="1" source="bZxXl5SBJ8heXvbcKSXl-29" target="bZxXl5SBJ8heXvbcKSXl-11">
          <mxGeometry width="50" height="50" relative="1" as="geometry">
            <mxPoint x="470" y="345" as="sourcePoint" />
            <mxPoint x="580" y="345" as="targetPoint" />
          </mxGeometry>
        </mxCell>
        <mxCell id="bZxXl5SBJ8heXvbcKSXl-30" value="" style="endArrow=none;html=1;rounded=0;entryDx=0;entryDy=0;exitX=0.5;exitY=0;exitDx=0;exitDy=0;" edge="1" parent="1" source="bZxXl5SBJ8heXvbcKSXl-7" target="bZxXl5SBJ8heXvbcKSXl-29">
          <mxGeometry width="50" height="50" relative="1" as="geometry">
            <mxPoint x="390" y="245" as="sourcePoint" />
            <mxPoint x="390" y="200" as="targetPoint" />
          </mxGeometry>
        </mxCell>
        <mxCell id="bZxXl5SBJ8heXvbcKSXl-29" value="" style="shape=waypoint;sketch=0;fillStyle=solid;size=6;pointerEvents=1;points=[];fillColor=none;resizable=0;rotatable=0;perimeter=centerPerimeter;snapToPoint=1;" vertex="1" parent="1">
          <mxGeometry x="380" y="190" width="20" height="20" as="geometry" />
        </mxCell>
        <mxCell id="bZxXl5SBJ8heXvbcKSXl-31" value="writes" style="text;html=1;align=center;verticalAlign=middle;whiteSpace=wrap;rounded=0;" vertex="1" parent="1">
          <mxGeometry x="382" y="210" width="60" height="30" as="geometry" />
        </mxCell>
        <mxCell id="bZxXl5SBJ8heXvbcKSXl-32" value="" style="endArrow=none;html=1;rounded=0;entryX=0.5;entryY=0;entryDx=0;entryDy=0;exitX=1;exitY=0.5;exitDx=0;exitDy=0;" edge="1" parent="1" source="bZxXl5SBJ8heXvbcKSXl-11" target="bZxXl5SBJ8heXvbcKSXl-8">
          <mxGeometry width="50" height="50" relative="1" as="geometry">
            <mxPoint x="640" y="70" as="sourcePoint" />
            <mxPoint x="580" y="345" as="targetPoint" />
            <Array as="points">
              <mxPoint x="640" y="133" />
            </Array>
          </mxGeometry>
        </mxCell>
        <mxCell id="bZxXl5SBJ8heXvbcKSXl-33" value="" style="shape=waypoint;sketch=0;fillStyle=solid;size=6;pointerEvents=1;points=[];fillColor=none;resizable=0;rotatable=0;perimeter=centerPerimeter;snapToPoint=1;" vertex="1" parent="1">
          <mxGeometry x="450" y="122.5" width="20" height="20" as="geometry" />
        </mxCell>
        <mxCell id="bZxXl5SBJ8heXvbcKSXl-34" value="has" style="text;html=1;align=center;verticalAlign=middle;whiteSpace=wrap;rounded=0;" vertex="1" parent="1">
          <mxGeometry x="570" y="142.5" width="60" height="30" as="geometry" />
        </mxCell>
      </root>
    </mxGraphModel>
  </diagram>
</mxfile>
